<svg viewBox="0 0 458.301 79.59" xmlns="http://www.w3.org/2000/svg"><path fill="current" fill-rule="evenodd" d="M 410.156 54.883 L 439.844 1.953 L 458.301 1.953 L 458.301 79.59 L 439.844 79.59 L 439.844 34.961 L 416.211 77.051 L 403.809 77.051 L 380.176 36.719 L 380.176 79.59 L 361.719 79.59 L 361.719 4.98 L 380.176 0 L 410.156 54.883 Z M 181.934 79.59 L 181.934 29.883 L 200.391 24.902 L 200.391 38.574 L 233.496 38.574 A 8.353 8.353 0 0 0 236.897 37.913 Q 239.712 36.673 241.113 33.105 A 12.751 12.751 0 0 0 241.992 28.418 A 13.921 13.921 0 0 0 241.606 25.029 A 8.761 8.761 0 0 0 237.988 19.727 Q 235.938 18.457 233.496 18.457 L 181.934 18.457 L 186.914 1.953 L 233.691 1.953 A 31.475 31.475 0 0 1 243.552 3.423 A 25.113 25.113 0 0 1 255.957 12.402 A 27.425 27.425 0 0 1 261.523 29.297 A 27.523 27.523 0 0 1 259.973 38.704 A 24.019 24.019 0 0 1 253.906 47.949 Q 249.902 51.758 244.531 53.516 L 263.77 79.59 L 241.992 79.59 L 225.098 55.078 L 200.391 55.078 L 200.391 79.59 L 181.934 79.59 Z M 0 79.59 L 0 29.883 L 18.457 24.902 L 18.457 32.617 L 52.539 32.617 A 12.004 12.004 0 0 0 55.515 32.274 A 7.127 7.127 0 0 0 60.449 28.223 A 8.472 8.472 0 0 0 60.906 26.694 A 6.819 6.819 0 0 0 61.035 25.391 Q 61.035 21.816 58.129 19.931 A 9.218 9.218 0 0 0 56.836 19.238 A 10.997 10.997 0 0 0 53.687 18.506 A 13.243 13.243 0 0 0 52.539 18.457 L 0 18.457 L 4.98 1.953 L 52.734 1.953 A 38.888 38.888 0 0 1 61.826 2.952 A 25.115 25.115 0 0 1 75.586 11.23 A 20.834 20.834 0 0 1 79.613 18.286 A 19.645 19.645 0 0 1 80.566 24.414 A 17.286 17.286 0 0 1 74.869 37.333 A 25.164 25.164 0 0 1 72.852 39.063 A 12.37 12.37 0 0 1 70.996 40.43 A 27.934 27.934 0 0 1 76.522 44.408 A 18.542 18.542 0 0 1 82.324 54.98 A 17.614 17.614 0 0 1 82.561 56.676 A 14.041 14.041 0 0 1 82.617 57.91 A 18.75 18.75 0 0 1 76.42 72.15 A 24.898 24.898 0 0 1 74.805 73.535 A 26.744 26.744 0 0 1 64.408 78.51 Q 60.023 79.59 54.785 79.59 L 0 79.59 Z M 152.051 69.238 L 116.113 69.238 L 122.852 53.418 L 144.531 53.418 L 129.395 21.191 L 102.344 79.59 L 82.91 79.59 L 119.727 4.98 L 138.281 0 L 176.465 79.59 L 156.934 79.59 L 152.051 69.238 Z M 331.738 69.238 L 295.801 69.238 L 302.539 53.418 L 324.219 53.418 L 309.082 21.191 L 282.031 79.59 L 262.598 79.59 L 299.414 4.98 L 317.969 0 L 356.152 79.59 L 336.621 79.59 L 331.738 69.238 Z M 54.59 49.023 L 18.457 49.023 L 18.457 63.086 L 54.59 63.086 A 12.004 12.004 0 0 0 57.566 62.743 A 7.127 7.127 0 0 0 62.5 58.691 A 8.472 8.472 0 0 0 62.957 57.163 A 6.819 6.819 0 0 0 63.086 55.859 A 6.466 6.466 0 0 0 62.458 52.962 Q 61.462 50.943 58.887 49.805 A 10.997 10.997 0 0 0 55.737 49.072 A 13.243 13.243 0 0 0 54.59 49.023 Z"/></svg>